<svg xmlns="http://www.w3.org/2000/svg" viewBox="0 0 32 32">
  <rect width="32" height="32" rx="8" fill="#6c2bd9"/>
  <g transform="translate(6, 6)" fill="none" stroke="white" stroke-width="1.5" stroke-linecap="round" stroke-linejoin="round">
    <path d="M4.5 16.5c-1.5 1.26-2 5-2 5s3.74-.5 5-2c.71-.84.7-2.13-.09-2.91a2.18 2.18 0 0 0-2.91-.09z"/>
    <path d="m12 15-3-3a22 22 0 0 1 2-3.95A12.88 12.88 0 0 1 17 2c3 0 5 2 5 2s2 2 2 5a12.88 12.88 0 0 1-6.05 6 22 22 0 0 1-3.95 2l-2-2"/>
    <circle cx="17" cy="7" r="1.5"/>
    <path d="M9 11.5A6 6 0 0 0 3.5 15l2 2"/>
    <path d="M12.5 15a6 6 0 0 0 3.5 5.5l-2-2"/>
  </g>
</svg>
